<?xml version="1.0" encoding="UTF-8"?>
<!DOCTYPE svg PUBLIC "-//W3C//DTD SVG 1.1//EN" "http://www.w3.org/Graphics/SVG/1.1/DTD/svg11.dtd">
<!-- Creator: CorelDRAW 2021 (64 Bit) -->
<svg xmlns="http://www.w3.org/2000/svg" xml:space="preserve" width="42.5984mm" height="42.5984mm" version="1.1" style="shape-rendering:geometricPrecision; text-rendering:geometricPrecision; image-rendering:optimizeQuality; fill-rule:evenodd; clip-rule:evenodd"
viewBox="0 0 74.66 74.66"
 xmlns:xlink="http://www.w3.org/1999/xlink"
 xmlns:xodm="http://www.corel.com/coreldraw/odm/2003">
 <defs>
  <style type="text/css">
   <![CDATA[
    .fil0 {fill:#282829}
    .fil1 {fill:white}
   ]]>
  </style>
 </defs>
 <g id="Camada_x0020_1">
  <metadata id="CorelCorpID_0Corel-Layer"/>
  <circle class="fil0" cx="37.33" cy="37.33" r="37.33"/>
  <g id="_2688046646224">
   <path class="fil1" d="M26.79 19.03c1.39,-0.21 16.46,-0.09 18.26,-0.09 3.37,0 5.04,0.29 7.25,1.95 0.8,0.6 1.6,1.58 2.13,2.46 0.6,0.99 1.01,2.08 1.19,3.38 0.21,1.5 0.09,16.41 0.09,18.31 0,3.35 -0.21,5.02 -1.96,7.24 -1.15,1.47 -3.1,2.96 -5.83,3.34 -1.48,0.21 -16.43,0.09 -18.31,0.09 -3.39,0 -5.02,-0.28 -7.25,-1.94 -1.7,-1.27 -3.04,-3.59 -3.34,-5.85 -0.2,-1.48 -0.08,-16.42 -0.08,-18.3 0,-3.4 0.24,-4.98 1.96,-7.25 1.37,-1.82 3.52,-2.99 5.89,-3.34zm0.39 -4.12c-2.74,0.1 -5.48,1.25 -7.52,2.92 -1.14,0.94 -2.24,2.17 -2.96,3.46 -0.68,1.21 -1.27,2.55 -1.56,4.08 -0.39,2.09 -0.24,8.42 -0.24,10.92 0,2.83 -0.12,8.83 0.03,11.27 0.34,5.77 4.59,10.82 10.45,11.96 2.07,0.4 8.44,0.24 10.92,0.24 3.69,0 7.56,0.11 11.23,-0.02 3.3,-0.12 6.18,-1.68 7.88,-3.29 1.15,-1.09 1.66,-1.56 2.56,-3.09 0.72,-1.22 1.23,-2.49 1.56,-4.08 0.41,-1.97 0.24,-8.5 0.24,-10.91 0,-3.68 0.12,-7.58 -0.02,-11.23 -0.24,-6.1 -5.04,-10.99 -10.45,-12.01 -2.09,-0.39 -8.42,-0.24 -10.92,-0.24 -3.67,0 -7.55,-0.12 -11.2,0.02z"/>
   <path class="fil1" d="M29.91 38.11c-0.09,-1.2 0.04,-2.28 0.39,-3.31 0.6,-1.77 1.9,-3.11 3.44,-4 4.41,-2.57 10.51,0.38 11.02,5.76 0.16,1.66 -0.22,3.18 -0.99,4.53 -0.27,0.48 -0.53,0.73 -0.8,1.1 -1.57,2.14 -5.06,3.22 -8.17,2.16 -0.43,-0.15 -0.92,-0.4 -1.24,-0.58 -1.71,-0.96 -3.47,-3.16 -3.66,-5.66zm-4.05 0.35c0.13,2.18 1.21,4.59 2.49,6.12l1.4 1.46c1.18,0.93 1.96,1.46 3.68,2.14 2.89,1.14 6.77,0.8 9.43,-0.73 0.68,-0.39 1.24,-0.73 1.72,-1.14 1.77,-1.52 2.73,-2.84 3.61,-5.07 1.52,-3.87 0.44,-9.1 -2.59,-11.92 -0.3,-0.28 -0.3,-0.44 -0.68,-0.71 -0.22,-0.16 -0.21,-0.14 -0.44,-0.34l-1.29 -0.89c-4.15,-2.41 -9.44,-2.07 -13.1,0.96l-1.48 1.38c-2.13,2.61 -2.97,5.17 -2.75,8.72z"/>
   <path class="fil1" d="M48.75 22.72c-3.6,0.92 -2.22,5.98 1.16,5.27 2.34,-0.49 2.79,-3.56 0.97,-4.82 -0.54,-0.38 -1.36,-0.65 -2.13,-0.45z"/>
  </g>
 </g>
</svg>
