<?xml version="1.0" encoding="UTF-8"?>
<!DOCTYPE svg PUBLIC "-//W3C//DTD SVG 1.1//EN" "http://www.w3.org/Graphics/SVG/1.1/DTD/svg11.dtd">
<!-- Creator: CorelDRAW 2021 (64 Bit) -->
<svg xmlns="http://www.w3.org/2000/svg" xml:space="preserve" width="117.2mm" height="117.2mm" version="1.1" style="shape-rendering:geometricPrecision; text-rendering:geometricPrecision; image-rendering:optimizeQuality; fill-rule:evenodd; clip-rule:evenodd"
viewBox="0 0 503.2 503.2"
 xmlns:xlink="http://www.w3.org/1999/xlink"
 xmlns:xodm="http://www.corel.com/coreldraw/odm/2003">
 <defs>
  <style type="text/css">
   <![CDATA[
    .str0 {stroke:#373435;stroke-width:0.86;stroke-linecap:round;stroke-linejoin:round;stroke-miterlimit:22.9256}
    .str1 {stroke:#61CB87;stroke-width:0.86;stroke-linecap:round;stroke-linejoin:round;stroke-miterlimit:22.9256}
    .fil5 {fill:none}
    .fil6 {fill:#1B3A35}
    .fil2 {fill:#9DA79D;fill-rule:nonzero}
    .fil1 {fill:#DA0000;fill-rule:nonzero}
    .fil3 {fill:#FCDD00;fill-rule:nonzero}
    .fil0 {fill:black;fill-rule:nonzero}
    .fil4 {fill:white;fill-rule:nonzero}
   ]]>
  </style>
   <clipPath id="id0">
    <path d="M251.6 9.02c133.98,0 242.58,108.61 242.58,242.58 0,133.98 -108.61,242.58 -242.58,242.58 -133.98,0 -242.58,-108.61 -242.58,-242.58 0,-133.98 108.61,-242.58 242.58,-242.58z"/>
   </clipPath>
 </defs>
 <g id="Camada_x0020_1">
  <metadata id="CorelCorpID_0Corel-Layer"/>
  <g>
  </g>
  <g style="clip-path:url(#id0)">
   <g>
    <path class="fil0" d="M534.07 836.64l0 0.01 -4.52 -0.42c4.52,-24.4 8.85,-48.01 -9.18,-76.29 -18.31,-28.7 -59.57,-62.17 -101.34,-96.04l-0.31 -0.31 -0.01 -0 0.05 0.06c-15.31,-17.15 -30.39,-34.02 -49.8,-46.75 -8.29,-5.44 -17.38,-10.13 -26.17,-14.67 -7.95,-4.1 -15.68,-8.09 -22.13,-12.32 -3.1,-2.04 -5.93,-4.14 -8.39,-6.38 -13.28,-12.14 -14.64,-27.58 -7.57,-38.53 5.48,-8.48 15.77,-13.82 29.06,-13.82 3.77,0 7.78,0.43 12,1.33 12.26,2.63 26.43,9.34 42.04,16.71 8.53,4.02 17.6,8.3 27.12,12.3 27.08,11.39 58.34,20.77 89.74,30.2l0.03 0 0.02 0.01c1.2,0.38 1.87,1.66 1.49,2.86 -0.38,1.2 -1.66,1.87 -2.87,1.49l-0.01 -0.01 0.03 0.02c-31.33,-9.41 -62.84,-18.87 -90.19,-30.37 -9.62,-4.04 -18.79,-8.37 -27.29,-12.38 -15.79,-7.45 -29.42,-13.88 -41.06,-16.37 -3.93,-0.85 -7.63,-1.24 -11.04,-1.24 -12.06,0 -20.74,4.81 -25.23,11.74 -5.72,8.85 -5.03,21.86 6.82,32.69 2.22,2.02 4.85,3.99 7.81,5.93 6.21,4.08 13.71,7.95 21.72,12.09 8.76,4.52 18.06,9.31 26.57,14.91 19.99,13.12 35.46,30.46 50.7,47.53l0.05 0.06 0 0.01 -0.31 -0.31c41.5,33.64 83.51,67.65 102.32,97.13 19.08,29.89 14.35,55.12 9.83,79.56 -0.21,1.16 -1.28,1.97 -2.45,1.86 -1.17,-0.12 -2.07,-1.09 -2.07,-2.27l0 -0.01c0,-1.26 1.02,-2.28 2.28,-2.28 1.26,0 2.28,1.02 2.28,2.28z"/>
    <path class="fil0" d="M417.11 654.59l0 0.01 -2.15 -2.28c6.74,0.38 13.56,0.76 20.13,1.59l0.05 0 0 0 -0.03 -0c6.55,0.82 12.86,2.09 19.04,3.33l0.06 0.01 0.02 0.01 -2.26 3.68 -0.01 -0 0 -0 -0.03 -0.03c-3.53,-4.39 -6.92,-8.59 -11.84,-12.61 -4.96,-4.06 -11.5,-7.96 -18.27,-11.98l0.01 0.01 -0.03 -0.02c-0.88,-0.52 -1.32,-1.57 -1.05,-2.58 0.28,-0.99 1.19,-1.68 2.21,-1.67 11.63,0.07 23.49,0.15 36,2.71 12.46,2.55 25.5,7.55 38.31,12.47l0.03 0.01 0.01 0 -2.88 3.14 -0.01 -0.01 -0.02 -0.04c-4,-8.4 -7.88,-16.49 -14.01,-23.7 -6.17,-7.24 -14.68,-13.69 -23.46,-20.32 -0.83,-0.62 -1.13,-1.72 -0.74,-2.68 0.39,-0.95 1.38,-1.53 2.4,-1.4 6.87,0.88 13.8,1.78 29.02,8.35 15.06,6.5 38.39,18.61 61.59,30.66l0.03 0.01 0.03 0.02 -2.86 3.43 -0.03 -0.04 -0 -0.01c-9.83,-12.44 -19.62,-24.81 -29.98,-36.1 -10.39,-11.31 -21.34,-21.53 -32.41,-31.85 -0.78,-0.73 -0.95,-1.91 -0.4,-2.83 0.55,-0.93 1.66,-1.34 2.68,-1l1.12 0.37 0 0c28.04,9.33 56.24,18.76 83.52,30.61 27.65,12.01 54.63,26.63 76.01,48.51 21.4,21.9 37.14,51.02 41.56,86.71 4.42,35.6 -2.43,77.65 -16.77,112.11 -14.36,34.5 -36.24,61.43 -57.61,79.39 -21.41,17.97 -42.26,26.91 -62.83,35.74 -0.93,0.4 -2.01,0.14 -2.66,-0.64 -0.65,-0.77 -0.7,-1.89 -0.14,-2.73 5.89,-8.77 11.8,-17.59 18.2,-26.02 6.38,-8.42 13.25,-16.45 20.03,-24.4l3.13 3.28 -0.02 0.02c-7.88,6.13 -15.98,12.43 -23.08,16.19 -7.22,3.82 -13.35,4.99 -19.19,6.11l-0.43 0.04c-1.23,0 -2.24,-0.98 -2.28,-2.21 -0.1,-3.26 -0.19,-6.75 2.69,-12.56 0.91,-1.84 2.12,-3.91 3.21,-5.8 1.01,-1.71 1.89,-3.24 2.47,-4.42 0.38,-0.77 0.52,-1.16 0.54,-1.29l2.24 0.43 -2.24 -0.42c0.08,-0.42 -0.37,1.08 1.07,1.79l-0 -0c0.33,0.17 0.63,0.2 0.82,0.2 0.09,0 0.16,-0.01 0.13,-0.01l-0.17 0.01 -0.01 0 0.16 -0.01c0.14,-0 0.2,-0.03 0.19,-0.03l0 0.01c-0.6,0.17 -2.31,1.28 -5.3,3.29 -3.93,2.63 -9.36,6.28 -14.77,8.73 -9.68,4.37 -19.19,4.84 -28.24,5.31l-0.12 0c-0.79,0 -1.51,-0.4 -1.94,-1.06 -0.41,-0.67 -0.46,-1.5 -0.12,-2.21l0.02 -0.02 0 -0 -0.01 0.02c1.47,-3.04 3.16,-6.58 5.89,-9.13l1.56 -0.61 -1.56 0.61c2.73,-2.55 6.37,-3.97 9.47,-5.21l0.05 4.25c-3.98,-1.47 -8.35,-3.08 -11.46,-5.15 -3.23,-2.16 -5.03,-4.76 -6.63,-7.03 -0.45,-0.65 -0.53,-1.51 -0.21,-2.24 0.33,-0.73 1.01,-1.24 1.8,-1.34 6.23,-0.76 12.38,-1.39 24.22,-12.85 12.09,-11.7 29.66,-34.27 35.9,-57.88 6.23,-23.56 1.28,-48.44 -3.84,-73.97l4.52 -0.49c0.26,16.41 0.56,33.25 -2.52,45.91 -3.11,12.83 -9.62,21.31 -15.19,26.56 -5.62,5.29 -10.31,7.34 -14.77,9.29l0.11 -0.05c-1.12,0.56 -2.5,0.1 -3.06,-1.02 -0.56,-1.12 -0.1,-2.5 1.02,-3.06l0 0 0.11 -0.05c4.34,-1.89 8.44,-3.69 13.46,-8.42 5.06,-4.78 11.03,-12.51 13.89,-24.31 2.9,-11.96 2.65,-28.14 2.38,-44.77 -0.02,-1.17 0.86,-2.17 2.03,-2.3 1.17,-0.13 2.25,0.66 2.48,1.82 5.08,25.3 10.32,51.27 3.77,76.03 -6.53,24.72 -24.73,47.99 -37.14,59.99 -12.67,12.27 -19.79,13.24 -26.84,14.1l1.59 -3.57c1.61,2.28 2.99,4.23 5.43,5.86 2.56,1.71 6.36,3.13 10.51,4.68 0.88,0.33 1.47,1.16 1.49,2.1 0.01,0.95 -0.56,1.8 -1.43,2.15 -3.29,1.31 -6.06,2.45 -8.05,4.31l-1.56 0.61 1.56 -0.61c-1.99,1.86 -3.34,4.57 -4.9,7.8l-0.01 0.02 -0 0 -2.03 -3.3 -0.12 0c9.13,-0.47 17.8,-0.95 26.61,-4.92 5.01,-2.26 10.11,-5.69 14.1,-8.36 2.53,-1.7 5.08,-3.45 6.54,-3.88 0.21,-0.07 0.49,-0.13 0.79,-0.15l0.16 -0 0.01 0 -0.17 0c-0,0 0.09,-0.01 0.21,-0.01 0.35,0 0.77,0.06 1.21,0.28l-0 -0.01c1.8,0.89 1.44,2.87 1.38,3.16l-2.24 -0.44 2.24 0.44c-0.15,0.79 -0.54,1.68 -0.93,2.45 -0.66,1.34 -1.65,3.02 -2.62,4.68 -1.11,1.92 -2.24,3.85 -3.07,5.53 -2.41,4.87 -2.31,7.51 -2.22,10.4l-2.28 -2.21 -0.42 0.04c5.83,-1.12 11.35,-2.19 17.92,-5.66 6.67,-3.54 14.42,-9.55 22.41,-15.76l0.02 -0.02c0.93,-0.72 2.24,-0.62 3.05,0.23 0.81,0.85 0.84,2.17 0.09,3.05 -6.8,7.96 -13.58,15.9 -19.87,24.19 -6.31,8.31 -12.15,17.02 -18.05,25.81l-2.8 -3.37c20.59,-8.83 40.86,-17.54 61.7,-35.04 20.86,-17.52 42.28,-43.87 56.33,-77.65 14.07,-33.83 20.76,-75.07 16.45,-109.8 -4.3,-34.63 -19.55,-62.85 -40.3,-84.09 -20.77,-21.26 -47.11,-35.58 -74.57,-47.51 -27.06,-11.75 -55.08,-21.13 -83.14,-30.47l-1.12 -0.38 2.27 -3.83c11.05,10.31 22.13,20.64 32.66,32.1 10.49,11.43 20.39,23.95 30.2,36.36l-0 -0 0.03 0.03c0.67,0.86 0.65,2.06 -0.05,2.89 -0.69,0.83 -1.87,1.05 -2.82,0.54l-0.03 -0.02 0.02 0.01c-23.26,-12.07 -46.43,-24.1 -61.3,-30.52 -14.74,-6.36 -21.25,-7.18 -27.79,-8.01l1.66 -4.08c8.67,6.56 17.63,13.31 24.18,21.01 6.57,7.73 10.68,16.37 14.65,24.69l-0.02 -0.04 0 0.01 0 0c0.42,0.88 0.27,1.89 -0.38,2.57 -0.64,0.69 -1.64,0.91 -2.51,0.56l-0 -0.01 0.03 0.01c-12.89,-4.94 -25.57,-9.81 -37.6,-12.26 -12,-2.45 -23.42,-2.54 -35.11,-2.61l1.17 -4.25 0.05 0.02c6.67,3.98 13.53,8.04 18.82,12.37 5.32,4.36 8.98,8.91 12.5,13.28l-0.03 -0.03 0.01 0.01c0.63,0.79 0.7,1.84 0.18,2.67 -0.51,0.82 -1.5,1.23 -2.45,1.01l-0.02 -0.01 0.07 0.02c-6.22,-1.25 -12.35,-2.48 -18.72,-3.28l-0.04 -0.01 -0.01 0 0.04 0.01c-6.41,-0.8 -13.04,-1.18 -19.82,-1.56 -1.21,-0.07 -2.15,-1.07 -2.15,-2.28 0,-1.26 1.02,-2.28 2.28,-2.28 1.26,0 2.28,1.02 2.28,2.28z"/>
    <path class="fil0" d="M536.5 789.17c0,0.28 -0.05,0.56 -0.15,0.82l-6.82 17.68c-0.37,0.94 -1.3,1.54 -2.31,1.45 -1,-0.07 -1.84,-0.81 -2.05,-1.8 -1.43,-6.76 -2.85,-13.51 -4.08,-20.49l0 -0.01 -0 -0.02 0 0.02 -0.05 -0.3 -0.05 -0.31c-1.09,-6.18 -2.31,-13.04 -19.93,-32.44 -18.29,-20.15 -53.85,-53.37 -87.29,-72.34 -20.49,-11.63 -40.27,-17.94 -57.73,-23.51 -10.92,-3.48 -21.04,-6.7 -29.74,-10.77 -22.71,-10.62 -35.62,-26.9 -48.22,-42.75l-0.26 -0.41c-8.44,-17.14 -17.03,-34.59 -20.86,-53.98 -3.81,-19.36 -2.87,-40.68 2.14,-55.75 5,-15.03 14.29,-24.36 28.59,-24.36 0.18,0 0.24,0 0.42,0l0.01 0c13.83,0.19 31.99,9.21 49.38,17.79l-0.01 0c30.33,14.84 60.69,29.7 89.95,43.19 9.35,4.31 18.73,8.56 27.57,12.55 8.1,3.66 15.95,7.21 23.13,10.52 9.45,4.36 17.89,8.39 24.85,12 18.12,9.43 25.87,16.03 33.53,22.55 0.96,0.81 1.07,2.26 0.26,3.21 -0.81,0.96 -2.26,1.08 -3.21,0.26 -7.52,-6.41 -14.97,-12.77 -32.67,-21.98 -6.87,-3.58 -15.22,-7.55 -24.66,-11.91 -7.17,-3.31 -14.98,-6.84 -23.1,-10.51 -8.82,-3.98 -18.25,-8.25 -27.61,-12.56 -29.3,-13.52 -59.73,-28.4 -90.04,-43.24l-0.01 -0.01c-17.82,-8.79 -34.88,-17.15 -47.42,-17.31l0.01 0c-0.18,-0 -0.2,-0 -0.37,-0 -11.63,0 -19.63,7.31 -24.26,21.24 -4.72,14.19 -5.69,34.69 -2,53.43 3.68,18.71 11.99,35.62 20.47,52.84l-0.26 -0.41c12.63,15.89 24.95,31.35 46.58,41.47 8.39,3.91 18.21,7.06 29.19,10.55 17.44,5.56 37.65,12 58.6,23.89 34.02,19.31 69.96,52.91 88.42,73.25 18.02,19.85 19.76,27.47 21.04,34.72l0.11 0.6 0 0.02 0 0.02 -0 -0.02c1.21,6.88 2.62,13.56 4.05,20.33l-4.36 -0.35 6.83 -17.68 -0.15 0.82c0,-1.26 1.01,-2.28 2.28,-2.28 1.26,0 2.28,1.02 2.28,2.28z"/>
    <path class="fil0" d="M204.01 161.71l-41.33 -71.82c-0.33,-0.58 -0.4,-1.27 -0.18,-1.9 0.22,-0.63 0.71,-1.12 1.33,-1.37 30.13,-11.77 60.73,-23.76 94.52,-23.75 2.34,0 4.68,0.05 7.06,0.17l-0 0c36.56,1.83 76.91,18.25 102,41.06 25.18,22.9 34.85,52.12 44.33,80.69 0.2,0.6 0.14,1.26 -0.16,1.82 -0.31,0.55 -0.84,0.95 -1.46,1.11l-62.17 15.18c-1,0.25 -2.05,-0.21 -2.54,-1.12 -9.48,-17.41 -18.67,-34.19 -35.24,-44.79 -14.12,-9.03 -33.8,-13.68 -50.75,-13.69 -2.98,0 -5.89,0.14 -8.63,0.43 -18.23,1.91 -30.66,10.16 -43.54,18.72 -0.52,0.36 -1.17,0.47 -1.78,0.33 -0.62,-0.15 -1.14,-0.54 -1.46,-1.08zm3.95 -2.27l-3.24 -0.77c12.84,-8.55 26.11,-17.42 45.59,-19.47 2.92,-0.3 5.97,-0.45 9.1,-0.45 17.62,0 38.2,4.81 53.21,14.41 17.71,11.34 27.4,29.21 36.79,46.45l-2.54 -1.12 62.17 -15.19 -1.62 2.94c-9.53,-28.71 -18.91,-56.77 -43.08,-78.75 -24.26,-22.06 -63.59,-38.1 -99.16,-39.88 -2.3,-0.12 -4.56,-0.17 -6.82,-0.17 -32.79,-0 -62.6,11.62 -92.86,23.45l1.14 -3.26 41.33 71.82z"/>
    <path class="fil0" d="M329.81 167.65l0 0 -4.16 -1.29 40.56 -59.09c0.71,-1.04 2.14,-1.3 3.17,-0.59 1.04,0.72 1.3,2.13 0.59,3.17l-40.56 59.09c-0.57,0.82 -1.61,1.19 -2.56,0.89 -0.96,-0.3 -1.6,-1.18 -1.6,-2.18l0 -0c0,-1.26 1.02,-2.28 2.28,-2.28 1.26,0 2.28,1.02 2.28,2.28z"/>
    <path class="fil0" d="M243.66 141.75l0 0.01 -4.55 -0.13 4 -74.9c0.07,-1.25 1.14,-2.22 2.4,-2.15 1.26,0.07 2.22,1.14 2.16,2.4l-4 74.9c-0.07,1.23 -1.1,2.19 -2.33,2.16 -1.24,-0.04 -2.22,-1.05 -2.22,-2.28l0 -0.01c0,-1.26 1.02,-2.28 2.28,-2.28 1.26,0 2.28,1.02 2.28,2.28z"/>
    <path class="fil0" d="M102.14 268.32c2.37,-6.04 4.75,-12.09 19.35,-18.94 14.6,-6.85 41.42,-14.52 68.24,-22.17 -2.95,-9.51 -5.91,-19.02 -5.09,-31.41 0.82,-12.39 5.42,-27.64 19.72,-39.68 14.1,-11.88 37.65,-20.63 60.31,-20.62 0.31,0 0.62,0 0.93,0 22.95,0.24 44.85,9.56 60.44,24.49 15.59,14.92 24.86,35.44 26.37,52.77 1.5,17.34 -4.77,31.48 -14.59,45.67 -9.82,14.2 -23.2,28.44 -35.21,41.81 -12.02,13.36 -22.67,25.84 -28.26,46.46 -5.59,20.62 -6.1,49.39 -5.26,72.1 0.85,22.71 3.07,39.35 5.29,56.01 -6.59,9.88 -13.18,19.76 -16.4,30.78 -3.22,11.02 -3.07,23.19 -1.03,35.81 2.04,12.63 5.97,25.7 10.89,37.31 4.92,11.61 10.84,21.76 16.92,30.1 6.08,8.34 12.34,14.87 18.59,21.4 7.48,6.02 14.97,12.05 23.45,16.24 8.49,4.18 17.98,6.52 32.44,11.22 14.46,4.71 33.9,11.77 49.02,19.23 15.13,7.46 25.94,15.3 36.97,24.04 11.03,8.75 22.27,18.4 30.82,25.99 8.55,7.59 14.4,13.14 19.92,18.73 5.51,5.59 10.69,11.23 15.86,16.86l12.13 23.46c-10.88,-5.64 -21.77,-11.26 -40.92,-14.42 -19.15,-3.15 -46.57,-3.84 -73.98,-4.52 0.86,9.14 1.71,18.29 5.8,30.09 4.09,11.8 11.42,26.27 18.32,37.07 6.89,10.79 13.35,17.93 16.34,25.3 3,7.38 2.54,15 1.11,22.55 -1.43,7.54 -3.83,15.01 -14.12,17.83 -4.09,1.12 -9.44,1.51 -15.33,1.51 -8.9,-0 -19.04,-0.88 -27.96,-1.44 -9.57,-0.6 -17.74,-0.82 -24.9,-0.83 -3.93,0 -7.56,0.07 -10.95,0.18 -9.54,0.31 -17.17,0.96 -29.61,1.25 -6.38,0.14 -14.03,0.19 -22.28,0.19 -7.86,0 -16.29,-0.04 -24.72,-0.09 -6.64,0.26 -13.28,0.51 -19.89,0.51 -7.2,0 -14.38,-0.3 -21.51,-1.24 -13.68,-1.79 -27.19,-5.9 -37.78,-5.98 -0.11,-0.01 -0.22,-0.01 -0.33,-0.01 -10.41,0 -17.97,3.92 -24.23,9.47 -6.33,5.61 -11.33,12.88 -14.63,19.38 -3.3,6.5 -4.89,12.23 -7.74,20.59 -2.85,8.37 -6.96,19.36 -10.76,19.8 -0.08,0.01 -0.16,0.02 -0.24,0.02 -3.71,0 -7.15,-9.9 -10.58,-19.8l-6.75 -23.24c-2.55,3.91 -5.1,7.82 -7.3,15.33 -2.2,7.51 -4.05,18.61 -4.37,27 -0.32,8.38 0.89,14.04 2.1,19.7 -3.32,-1.81 -6.63,-3.62 -9.86,-6.77 -3.23,-3.15 -6.37,-7.65 -7.67,-14.51 -1.3,-6.87 -0.74,-16.11 -1.7,-20.43 -0.46,-2.05 -1.24,-2.98 -2.13,-2.98 -0.99,0 -2.09,1.16 -2.98,3.25 -1.69,3.98 -2.6,11.32 -5.47,18.8 -2.87,7.48 -7.71,15.07 -12.55,22.66 -1.4,-2.24 -2.8,-4.47 -3.64,-12.77 -0.84,-8.3 -1.12,-22.67 0.3,-36.59 1.42,-13.92 4.54,-27.41 12.11,-38.06 7.55,-10.66 19.55,-18.49 34.4,-23.69 14.85,-5.19 32.55,-7.73 47.73,-8.81 7.54,-0.53 14.47,-0.71 21.14,-0.71 6.76,0 13.28,0.18 19.93,0.35 13.23,0.35 27.03,0.67 43.28,1.37 16.25,0.7 34.95,1.8 54.84,3.96 19.89,2.17 40.98,5.4 55.54,7.11 5.57,0.66 10.19,1.08 13.98,1.08 6.14,0 10.13,-1.12 12.57,-4.21 3.94,-5.02 3.76,-15.24 -0.81,-26.32 -4.58,-11.08 -13.56,-23.02 -22.54,-34.96 -6.66,-6.82 -13.33,-13.65 -25.23,-19.78 -11.91,-6.13 -29.05,-11.56 -43.31,-21.47 -14.26,-9.92 -25.64,-24.32 -37.02,-38.73 -6.08,-1.14 -12.16,-2.28 -20.01,-5.47 -7.84,-3.19 -17.45,-8.44 -31.78,-20.25 -14.33,-11.8 -33.38,-30.17 -52.43,-48.55 -1.76,0.85 -3.52,1.7 -5.65,1.7 -1.48,-0 -3.15,-0.41 -5.13,-1.51 -4.81,-2.67 -11.46,-9.45 -22.81,-26.84 -11.35,-17.4 -27.39,-45.42 -31.34,-78.51 -3.95,-33.1 4.2,-71.27 17.3,-104.44 13.1,-33.16 31.15,-61.32 46.15,-80.41 15,-19.1 26.95,-29.14 38.9,-39.18 -5.1,-1.87 -10.2,-3.73 -14.24,-7.83 -4.04,-4.09 -7.01,-10.42 -4.75,-19.01 2.27,-8.58 9.8,-19.42 17.33,-30.27 -20.01,2.88 -40.02,5.77 -53.7,6.43 -2.22,0.11 -4.28,0.16 -6.19,0.16 -9.86,0 -16,-1.31 -22.13,-2.61 2.58,-0.99 5.17,-1.98 18.31,-5.06 13.14,-3.08 36.83,-8.24 51.01,-10.87 14.18,-2.63 18.82,-2.72 19.89,-4.69 0.9,-1.67 -0.81,-4.71 -10.22,-4.71 -1.63,0 -3.49,0.09 -5.62,0.29 -14.35,1.39 -40.54,8.02 -55.56,12.22 -15.03,4.2 -18.92,5.99 -22.8,7.76z"/>
    <path class="fil0" d="M225.51 1168.66c-2.93,-8.75 -5.87,-17.49 -1.59,-28.25 4.29,-10.75 15.79,-23.51 27.3,-36.27 -16.87,-2.97 -33.73,-5.93 -46.49,-6.41 -1.31,-0.05 -2.58,-0.07 -3.8,-0.07 -10.74,-0 -18.5,1.79 -26.27,3.58 4.4,-9.9 8.8,-19.81 32.06,-25.56 23.27,-5.75 65.4,-7.34 107.54,-8.93l-10.88 -170.21 1.99 -50.08 -1.66 -98.88 32.41 7.68 2.83 154.62 12.25 153.41c26.17,3.88 52.34,7.76 68.24,14.6 15.91,6.85 21.54,16.66 27.18,26.47 -17.66,-1.86 -35.31,-3.73 -53.07,-3.73 -5.64,0 -11.29,0.19 -16.95,0.62 -23.49,1.81 -47.2,7.87 -66.42,15.13 -19.22,7.27 -33.97,15.73 -47.34,24.65 -13.37,8.91 -25.35,18.27 -37.33,27.62z"/>
    <path class="fil1" d="M200.08 270.14c0,0 -25.03,46.11 -8.7,48.96 0.55,0.1 1.1,0.15 1.63,0.15 14.51,0 24.31,-33.8 13.65,-44.43 -1.91,-1.9 -6.58,-4.68 -6.58,-4.68z"/>
    <path class="fil2" d="M234.47 500.66l-23.8 1.46 7.95 19.97 -23.86 1.82 8.39 16.34 -17.78 2.05 5.85 22.97 -18.45 -7.24c-0.7,5.4 -1.4,10.8 -1.49,15.25 -0.08,4.45 0.45,7.96 0.98,11.47 -3.89,-2.34 -7.78,-4.68 -12.65,-15.61 -4.87,-10.93 -10.71,-30.46 -8.16,-63.52 2.55,-33.06 13.49,-79.63 34.9,-121.68 21.31,-41.85 52.98,-79.21 60.47,-79.2 0.03,0 0.07,0 0.09,0 7.3,0.33 -9.96,38.49 -20.12,69.86 -10.16,31.36 -13.22,55.93 -10.75,75.81 2.46,19.88 10.44,35.07 18.43,50.26z"/>
    <path class="fil2" d="M292.36 180.69c0,0 30.51,24.03 28.91,40.55 -2.36,24.29 -28.44,56.16 -52.37,56.16 -2.76,0 -5.5,-0.43 -8.16,-1.34 -28.32,-9.67 32.36,-53.79 32.43,-83.72 0.01,-3.89 -0.81,-11.65 -0.81,-11.65z"/>
    <path class="fil2" d="M285.8 713.54c0,0 -27.56,-75.02 -2.06,-76.62 0.28,-0.02 0.55,-0.02 0.82,-0.02 14.82,0 17.08,26.09 27.7,37.13 11.02,11.45 38.18,16.06 35.57,31.73 -1.54,9.17 -14.05,11.71 -27.44,11.71 -16.63,0 -34.6,-3.91 -34.6,-3.91z"/>
    <path class="fil2" d="M287.69 474.26c-8.56,0 -15.02,3.89 -19.71,11.17 -1.84,2.87 -3.42,6.28 -4.73,10.21 -4.73,14.22 -5.69,34.76 -2,53.53 3.67,18.68 11.96,35.58 20.42,52.76l0.1 0.06 -0.01 -0.01 -0.03 0c12.55,15.79 24.88,31.15 46.42,41.23 8.4,3.92 18.23,7.06 29.22,10.57l0.05 0.02 0.05 0.01 0 0.01c17.43,5.55 37.56,11.98 58.46,23.83 34.01,19.29 69.91,52.88 88.37,73.21 17.99,19.81 19.72,27.4 20.99,34.6l0.06 0.32 0 0.02c0.05,0.25 0.01,0.04 0.06,0.31l0 0.02c0.75,4.28 1.6,8.56 2.47,12.78l0.39 -0.05 -0.01 0.07 4.01 -10.4 -0.1 0.09 0.14 -0.2c-1.77,-9.1 -5.36,-18.54 -11.75,-28.56 -18.33,-28.73 -59.62,-62.23 -101.39,-96.09l0 0.01c-0.09,-0.08 -0.16,-0.15 -0.24,-0.24l0 0.01c-15.31,-17.15 -30.4,-34.05 -49.84,-46.8 -8.31,-5.45 -17.38,-10.14 -26.19,-14.68l-0.12 -0.06c-7.92,-4.09 -15.59,-8.04 -21.99,-12.25 -3.09,-2.03 -5.92,-4.14 -8.36,-6.36 -13.22,-12.08 -14.55,-27.42 -7.53,-38.27 0.44,-0.68 0.88,-1.3 1.39,-1.94 5.71,-7.31 15.33,-11.79 27.51,-11.79 3.76,0 7.75,0.43 11.96,1.33 12.18,2.61 26.25,9.25 41.78,16.58l0 0.01 0.21 0.1c8.58,4.05 17.55,8.28 27.13,12.31 25.11,10.55 53.79,19.38 82.84,28.12l0.26 -0.19 0 -0 -0.07 -0.14c-4.54,-4.36 -9.13,-8.64 -13.75,-12.94 -0.71,-0.67 -0.87,-1.75 -0.37,-2.59 0.39,-0.65 1.07,-1.02 1.79,-1.02 0.23,0 0.44,0.03 0.66,0.11l0 0 0 -0 0.24 0.08c13.64,4.54 27.43,9.13 41.01,13.98l0.26 -0.19 -0.07 -0.16c-6.06,-4.87 -13.56,-10.13 -26.68,-16.96l-0 0 -0.02 -0.01 0 0c-6.83,-3.56 -15.22,-7.56 -24.61,-11.89 -7.18,-3.31 -14.87,-6.79 -22.99,-10.46l0 0.01c0,-0.01 -0.29,-0.13 -0.46,-0.21 -8.57,-3.88 -18.2,-8.23 -27.3,-12.43 -29.24,-13.49 -59.73,-28.41 -89.99,-43.21l0 0.01 -0.05 -0.03 -0 0c-17.81,-8.79 -34.91,-17.18 -47.5,-17.34 -0.06,0 -0.32,0 -0.37,0z"/>
    <path class="fil1" d="M511.39 926.44l0.2 0.12 0.01 -0.01 -0.21 -0.11zm0.18 -0.02l0.07 0.09 -0.03 0.04 0.07 0.04 0.01 0.02 0 0.01 -0 0.01 -0.09 -0.06 -0.12 0.12c-0,-0.06 -0.04,-0.14 -0.12,-0.24l0.02 0 0.02 0 -0.02 -0.01 -0.02 0c-0,-0.01 -0,-0.02 -0.01,-0.02l0.23 0zm-16.83 -346.31c-0.16,0 -0.31,0.09 -0.37,0.25 -0.07,0.16 -0.02,0.33 0.09,0.44 8.48,7.98 16.94,16.16 25,24.95 10.48,11.41 20.36,23.91 30.17,36.32l0.04 0.05 0 0.01c0.54,0.69 0.53,1.67 -0.03,2.36 -0.37,0.44 -0.91,0.68 -1.45,0.68 -0.3,0 -0.59,-0.07 -0.86,-0.21l0 0c-23.28,-12.09 -46.45,-24.11 -61.36,-30.55 -8.48,-3.66 -14.24,-5.48 -18.87,-6.54l-0.09 -0.01 -0.02 0c-0.17,-0 -0.32,0.1 -0.37,0.26 -0.06,0.17 -0,0.35 0.13,0.45 6.2,4.83 12.14,9.86 16.82,15.38 6.52,7.66 10.6,16.21 14.56,24.52l0 0.01 0.02 0.04c0.02,0.04 0.04,0.08 0.08,0.11l-0.02 0c0.3,0.68 0.16,1.47 -0.34,2.02 -0.37,0.4 -0.87,0.61 -1.38,0.61 -0.23,0 -0.46,-0.05 -0.68,-0.13 -12.89,-4.95 -25.58,-9.81 -37.66,-12.29 -9.15,-1.87 -17.96,-2.37 -26.79,-2.53l-0.03 0c-0.18,-0 -0.33,0.12 -0.38,0.29 -0.05,0.17 0.02,0.35 0.18,0.45 4.22,2.61 8.24,5.27 11.61,8.02 5.27,4.31 8.91,8.83 12.42,13.19l0 0.01 0.03 0.04c0.5,0.62 0.56,1.48 0.14,2.16l0 0c-0.35,0.56 -0.96,0.9 -1.61,0.9 -0.12,0 -0.25,-0.01 -0.37,-0.04l-0.01 0c-6.22,-1.26 -12.37,-2.49 -18.77,-3.29 -5.03,-0.63 -10.21,-1.01 -15.49,-1.31l-0.02 0 -0.02 0c-0.16,-0 -0.3,0.09 -0.37,0.23 -0.06,0.14 -0.04,0.31 0.07,0.43 1.19,1.33 1.88,2.1 3.06,3.44l0.24 0.08 -0.17 -0.04 0.09 0.07 0.09 0.08c41.38,33.54 83.12,67.38 101.82,96.69 17.84,27.96 14.78,51.8 10.58,74.86 -0.02,0.15 0.04,0.3 0.15,0.39 0.07,0.05 0.16,0.08 0.25,0.08 0.06,0 0.12,-0.01 0.17,-0.05 3.01,-1.48 6.09,-3.37 9.6,-6.68 5.11,-4.82 11.12,-12.62 14,-24.51 2.92,-12.03 2.67,-28.26 2.4,-44.87 -0.01,-0.97 0.72,-1.8 1.68,-1.9l0 0.01c0.07,-0.01 0.14,-0.02 0.2,-0.02 0.89,0 1.67,0.63 1.85,1.51l0.05 0.28c5.06,25.24 10.22,51 3.73,75.58 -6.51,24.63 -24.64,47.82 -37.03,59.8 -6.29,6.09 -11.23,9.42 -15.54,11.31l-0 0c-2.64,1.16 -5.02,1.77 -7.22,2.15 -0.2,0.04 -0.35,0.22 -0.33,0.43 0.02,0.14 0.1,0.26 0.23,0.33l-0.02 0c0.88,1 1.88,1.94 3.14,2.78 2.61,1.75 6.43,3.17 10.57,4.71l0.01 0c0.01,0 0.02,0 0.02,0.01l-0.01 0c0.03,0 0.05,0.01 0.08,0.02l-0.02 0c0.71,0.29 1.16,0.96 1.17,1.72 0,0.78 -0.46,1.49 -1.19,1.77 -0.96,0.38 -2.01,0.8 -2.91,1.2 -2.09,0.91 -3.87,1.89 -5.27,3.19 -1.26,1.18 -2.27,2.69 -3.21,4.41 -0.07,0.13 -0.07,0.28 0.01,0.41 0.07,0.1 0.17,0.16 0.28,0.19l-0.02 0c0.02,0 0.05,0 0.07,0 0.02,0 0.03,0 0.05,-0l-0.01 0c7.57,-0.46 14.91,-1.28 22.36,-4.55l0.01 0c0.06,-0.02 0.05,-0.02 0.12,-0.05l-0.01 0 0.13 -0.06c0.18,-0.08 0.01,-0.01 0.19,-0.08l0.13 -0.19 -0.12 0.18c5.06,-2.28 10.18,-5.71 14.17,-8.39l0 0c0,-0 0.22,-0.15 0.24,-0.16 0.11,-0.07 0.14,-0.09 0.24,-0.16l0 0.01c2.15,-1.45 4.07,-2.72 5.31,-3.27l0 0c0.21,-0.09 0.41,-0.17 0.63,-0.23l0.07 -0.09 -0.06 0.08c0.19,-0.05 0.44,-0.11 0.7,-0.12 0.02,0 0.03,-0 0.05,-0l-0.02 0c0.06,-0.01 0.07,-0.01 0.15,-0.01 0.3,0 0.66,0.05 1.04,0.24l0 0c1.14,0.56 1.26,1.62 1.22,2.29l-0.02 0.01 -0.04 0.46 0 0c-0.15,0.72 -0.52,1.54 -0.89,2.3 -0.65,1.32 -1.62,2.97 -2.59,4.64l-0.02 0.03c-1.11,1.91 -2.25,3.87 -3.08,5.56 -1.69,3.4 -2.17,5.75 -2.27,7.86l0.02 0 -0.02 0c0,0 0,0.01 0,0.01l0 0.01c0,0.11 0.05,0.22 0.14,0.29l-0 0.01c0.07,0.06 0.16,0.09 0.27,0.09 0.03,0 0.06,0 0.1,-0.01l-0.02 0c3.94,-0.8 7.81,-1.74 12.11,-3.62l0.02 -0.01 0.01 -0.01c1.06,-0.46 2.07,-0.95 3.18,-1.54l0 0 0.01 -0.01c6.71,-3.55 14.5,-9.6 22.5,-15.81 0.33,-0.26 0.75,-0.4 1.15,-0.4 0.5,0 1,0.2 1.36,0.58 0.66,0.7 0.7,1.79 0.07,2.52 -6.81,7.96 -13.58,15.9 -19.88,24.21 -4.76,6.28 -9.27,12.8 -13.73,19.39l0 0c-0.05,0.06 -0.07,0.14 -0.07,0.23l0 0c0,0.09 0.03,0.17 0.09,0.25 0.05,0.07 0.12,0.11 0.21,0.13l-0.02 0 0 0c0.03,0.01 0.08,0.02 0.11,0.02 0.07,0 0.12,-0.02 0.18,-0.04l-0.01 0.01c0.97,-0.43 1.21,-0.53 2.17,-0.95l0 0.01c17.43,-7.65 34.78,-16.2 52.5,-31.1 20.9,-17.55 42.37,-43.95 56.45,-77.79 14.1,-33.88 20.8,-75.2 16.48,-110 -4.31,-34.73 -19.6,-63.02 -40.41,-84.33 -20.82,-21.31 -47.22,-35.67 -74.7,-47.6 -24.26,-10.54 -49.25,-19.15 -74.36,-27.54l-0.13 -0.02 -0.02 0z"/>
    <path class="fil1" d="M368.7 111.51l-0.15 0.07 -37.22 54.21 0.17 0.27 -0.09 -0.03 -0.03 0c0.6,0.64 1.19,1.29 1.77,1.95l-0 0.01c7.61,10.21 12.96,20.19 16.07,29.92l0.35 -0.05 -0.14 0.17 57.2 -13.96 0.02 -0.01 0.14 -0.23c-8.67,-26.09 -17.56,-51.56 -37.95,-72.27l-0.14 -0.05 -0.02 0z"/>
    <path class="fil1" d="M243 68.12l-0.02 0c-26.03,2.76 -50.45,12.05 -75.09,21.67l0.05 0.24 -0.08 -0.05 37.6 65.35 0.24 -0.07 -0.03 0.07 0.02 0c5.75,-4.61 12.7,-8.63 20.86,-12.04l0 0 0.01 -0c4.3,-1.5 8.52,-2.77 12.66,-3.8l0.02 -0 0.11 -0.12 3.8 -71.11 -0.13 -0.14 -0.02 0z"/>
    <g>
     <path class="fil3" d="M247.6 67.7l0 0 -0.01 0 0 -0 0.01 0zm0 0l0 0 0 -0zm-0.04 0.05l-0.08 0.08 0.01 0.01 0.08 0.08 -0.01 -0.17zm10.78 -0.46c-3.61,0 -7.18,0.14 -10.73,0.41l-0.02 0 -0.02 0 0 0.05 0.02 -0.02 0.01 0.11 -0.01 0 0.01 0 0.01 0.1 -0.02 -0.02 0 0.02 -0.09 -0.1 -0.02 -0.01 0.01 0 -0.01 0 -3.76 70.45 0 0.01 0 -0.01 -0 0.01 0.01 0 0.12 0.13 -0.12 -0.13 0.24 0.01 -0.12 0.12 0.03 -0c7.67,-1.62 15.06,-2.43 22.2,-2.43 23.62,0 44.32,8.88 62.11,26.65l0.22 -0.09 -0.02 0.06 37.11 -54.06 -0.06 0.04 0.07 -0.21c-0.34,-0.32 -0.72,-0.67 -1.07,-0.98l0 0c-24.29,-22.09 -63.65,-38.14 -99.24,-39.92 -2.31,-0.12 -4.56,-0.17 -6.84,-0.17z"/>
    </g>
    <path class="fil4" d="M333.75 535.48c-11.15,-0 -19.48,4.12 -24.25,10.21 -0.41,0.53 -0.8,1.08 -1.17,1.64l0 0.01c-5.79,8.95 -5.07,22.09 6.85,32.99 2.24,2.04 4.87,4.01 7.84,5.96 6.21,4.07 13.75,7.97 21.74,12.09l0 0 0.09 0.05c8.71,4.5 17.99,9.29 26.45,14.84 16.73,10.98 30.28,24.92 43.21,39.21l0.43 -0.17 -0.23 0.24c0.01,0 0.09,0 0.11,0 0.07,0 0.12,0 0.18,0.01l0.04 -0 0.02 0c6.71,0.37 13.44,0.76 19.98,1.58l0.02 0 -0 0.01c4.38,0.54 8.57,1.28 12.76,2.09l0.15 -0.02 0.01 0 0.08 -0.39c-2.28,-2.65 -4.76,-5.24 -7.83,-7.75 -4.98,-4.07 -11.57,-7.99 -18.32,-12.01 -0.79,-0.47 -1.16,-1.42 -0.92,-2.3 0.25,-0.88 1.05,-1.49 1.96,-1.49l0.19 0.01c11.58,0.07 23.34,0.16 35.76,2.7l0 0c10.71,2.19 21.86,6.2 32.92,10.41l0.34 -0.23 -0.02 -0.12c-3.22,-6.55 -6.67,-12.86 -11.56,-18.6 -6.19,-7.27 -14.72,-13.73 -23.5,-20.36 -0.73,-0.56 -1,-1.54 -0.65,-2.39 0.31,-0.77 1.07,-1.26 1.88,-1.26 0.09,0 0.16,0 0.25,0.02l0.01 -0 0.02 0 0.21 -0.07 -0.18 0.07c6.84,0.88 13.74,1.79 28.89,8.33 13.03,5.62 32.21,15.42 52.17,25.77l0.36 -0.22 0 -0 -0.05 -0.16c-7.65,-9.61 -15.35,-19.03 -23.42,-27.82 -3.91,-4.26 -7.93,-8.39 -11.98,-12.4l-0.13 -0.07 -0.11 0c-0.11,0.01 -0.23,0.03 -0.34,0.03 -0.2,0 -0.39,-0.03 -0.59,-0.09l0 0.01 -0.18 -0.06c-31.31,-9.4 -62.7,-18.82 -90,-30.3 -9.65,-4.06 -18.75,-8.36 -27.29,-12.39 -15.78,-7.45 -29.43,-13.88 -41.11,-16.38 -3.96,-0.85 -7.66,-1.24 -11.11,-1.24z"/>
    <path class="fil4" d="M246.06 220.52c0,6.96 -5.65,12.61 -12.62,12.61 -6.96,0 -12.62,-5.64 -12.62,-12.62 0.01,-6.97 5.65,-12.61 12.62,-12.61 6.96,0 12.62,5.65 12.62,12.62z"/>
   </g>
  </g>
  <path class="fil5 str0" d="M251.6 9.02c133.98,0 242.58,108.61 242.58,242.58 0,133.98 -108.61,242.58 -242.58,242.58 -133.98,0 -242.58,-108.61 -242.58,-242.58 0,-133.98 108.61,-242.58 242.58,-242.58z"/>
  <circle class="fil5 str1" cx="251.6" cy="251.6" r="251.17"/>
  <path class="fil6" d="M251.6 494.18c-133.98,0 -242.58,-108.61 -242.58,-242.58 0,-133.98 108.61,-242.58 242.58,-242.58 133.98,0 242.58,108.61 242.58,242.58 0,133.98 -108.61,242.58 -242.58,242.58zm251.17 -242.58c0,-138.72 -112.45,-251.17 -251.17,-251.17 -138.72,0 -251.17,112.45 -251.17,251.17 0,138.72 112.45,251.17 251.17,251.17 138.72,0 251.17,-112.45 251.17,-251.17z"/>
 </g>
</svg>
