<?xml version="1.0" encoding="UTF-8"?>
<!DOCTYPE svg PUBLIC "-//W3C//DTD SVG 1.1//EN" "http://www.w3.org/Graphics/SVG/1.1/DTD/svg11.dtd">
<!-- Creator: CorelDRAW 2021 (64 Bit) -->
<svg xmlns="http://www.w3.org/2000/svg" xml:space="preserve" width="42.5984mm" height="42.5984mm" version="1.1" style="shape-rendering:geometricPrecision; text-rendering:geometricPrecision; image-rendering:optimizeQuality; fill-rule:evenodd; clip-rule:evenodd"
viewBox="0 0 81.43 81.43"
 xmlns:xlink="http://www.w3.org/1999/xlink"
 xmlns:xodm="http://www.corel.com/coreldraw/odm/2003">
 <defs>
  <style type="text/css">
   <![CDATA[
    .fil0 {fill:#282829}
    .fil1 {fill:white}
   ]]>
  </style>
 </defs>
 <g id="Camada_x0020_1">
  <metadata id="CorelCorpID_0Corel-Layer"/>
  <circle class="fil0" cx="40.72" cy="40.72" r="40.72"/>
  <path class="fil1" d="M57.11 20.71c-1.12,0.11 -1.94,0.49 -2.86,0.88 -2.6,1.11 -5.32,2.18 -7.96,3.29 -3.5,1.48 -7.02,2.94 -10.56,4.41 -3.53,1.46 -7.07,2.9 -10.6,4.36 -1.77,0.73 -3.55,1.44 -5.32,2.18 -1.44,0.61 -6.76,2.65 -7.85,3.37 -0.57,0.37 -1.72,1.17 -1.14,2.28 0.1,0.19 0.29,0.42 0.41,0.53 0.2,0.17 0.29,0.23 0.6,0.33l7.07 2.3c0.96,0.31 1.99,0.59 3.07,0.67 1.14,0.09 2.35,-0.01 3.29,-0.45l1.14 -0.73c0.37,-0.24 0.76,-0.5 1.13,-0.75l6.73 -4.49c2.96,-1.98 6,-4.06 8.92,-6.08 0.74,-0.51 1.48,-0.98 2.32,-1.43 0.5,-0.27 2.64,-1.32 2.17,0.26 -0.26,0.86 -0.95,1.63 -1.54,2.21 -0.31,0.31 -0.62,0.63 -0.93,0.94l-1.9 1.85c-0.95,0.91 -1.89,1.84 -2.85,2.74 -0.16,0.15 -0.31,0.31 -0.48,0.46l-2.17 2.04c-0.09,0.08 -0.15,0.16 -0.24,0.25l-0.97 0.9c-0.27,0.3 -1.18,1.05 -1.46,1.35 -0.3,0.33 -1.59,1.43 -1.93,1.79 -0.15,0.16 -0.29,0.28 -0.47,0.47 -1.1,1.21 -0.74,2.67 0.62,3.69l1.05 0.83c1.77,1.38 4.71,3.35 6.62,4.63 1.5,1.01 3.01,1.99 4.52,2.98 0.78,0.51 1.39,0.98 2.3,1.41 0.86,0.41 1.69,0.81 2.75,1 2.48,0.44 3.61,-1.3 3.86,-3.48 0.12,-1.05 0.35,-2.19 0.52,-3.24l2.58 -16.13c0.34,-2.17 0.65,-4.34 0.99,-6.51 0.34,-2.16 0.69,-4.34 0.97,-6.52 0.14,-1.04 0.39,-2.39 0.03,-3.39 -0.33,-0.9 -1.23,-1.33 -2.45,-1.21z"/>
 </g>
</svg>
