<?xml version="1.0" encoding="UTF-8"?>
<!DOCTYPE svg PUBLIC "-//W3C//DTD SVG 1.1//EN" "http://www.w3.org/Graphics/SVG/1.1/DTD/svg11.dtd">
<!-- Creator: CorelDRAW 2021 (64 Bit) -->
<svg xmlns="http://www.w3.org/2000/svg" xml:space="preserve" width="42.5984mm" height="42.5984mm" version="1.1" style="shape-rendering:geometricPrecision; text-rendering:geometricPrecision; image-rendering:optimizeQuality; fill-rule:evenodd; clip-rule:evenodd"
viewBox="0 0 77.81 77.81"
 xmlns:xlink="http://www.w3.org/1999/xlink"
 xmlns:xodm="http://www.corel.com/coreldraw/odm/2003">
 <defs>
  <style type="text/css">
   <![CDATA[
    .fil1 {fill:#FEFEFE}
    .fil0 {fill:#282829}
   ]]>
  </style>
 </defs>
 <g id="Camada_x0020_1">
  <metadata id="CorelCorpID_0Corel-Layer"/>
  <circle class="fil0" cx="38.91" cy="38.91" r="38.91"/>
  <path class="fil1" d="M40.03 15.89l0 30.72c0,1.92 -0.76,3.75 -2.13,5.12 -1.37,1.37 -3.2,2.13 -5.14,2.13 -1.93,0 -3.77,-0.76 -5.14,-2.13 -1.37,-1.37 -2.13,-3.2 -2.13,-5.14 0,-1.94 0.76,-3.77 2.13,-5.14 1.37,-1.37 3.2,-2.13 5.14,-2.13l2.84 0 0 -8.05 -2.84 0c-4.08,0 -7.95,1.6 -10.83,4.49 -2.88,2.88 -4.49,6.76 -4.49,10.83 0,4.08 1.61,7.95 4.49,10.83 2.88,2.88 6.76,4.49 10.83,4.49 4.08,0 7.95,-1.61 10.83,-4.49 2.88,-2.88 4.49,-6.76 4.49,-10.83l0 -17.09 0 -1.27c1.31,1.39 2.91,2.49 4.63,3.3 1.5,0.71 3.11,1.2 4.74,1.5l1.37 0.25 1.53 -7.76 -1.43 -0.25c-2.02,-0.35 -3.85,-1.24 -5.46,-2.49 -2.09,-1.62 -3.77,-3.81 -5.02,-6.13l-0.4 -0.74 -8.02 0z"/>
 </g>
</svg>
