<?xml version="1.0" encoding="UTF-8"?>
<!DOCTYPE svg PUBLIC "-//W3C//DTD SVG 1.1//EN" "http://www.w3.org/Graphics/SVG/1.1/DTD/svg11.dtd">
<!-- Creator: CorelDRAW 2021 (64 Bit) -->
<svg xmlns="http://www.w3.org/2000/svg" xml:space="preserve" width="42.5984mm" height="42.5984mm" version="1.1" style="shape-rendering:geometricPrecision; text-rendering:geometricPrecision; image-rendering:optimizeQuality; fill-rule:evenodd; clip-rule:evenodd"
viewBox="0 0 85.06 85.06"
 xmlns:xlink="http://www.w3.org/1999/xlink"
 xmlns:xodm="http://www.corel.com/coreldraw/odm/2003">
 <defs>
  <style type="text/css">
   <![CDATA[
    .fil1 {fill:#FEFEFE}
    .fil0 {fill:#282829}
   ]]>
  </style>
 </defs>
 <g id="Camada_x0020_1">
  <metadata id="CorelCorpID_0Corel-Layer"/>
  <circle class="fil0" cx="42.53" cy="42.53" r="42.53"/>
  <path class="fil1" d="M23.83 20.13l6.49 -0c0.46,0.12 24.77,35.91 27.14,39.24l3.82 5.56 -6.7 0.03 -19.17 -27.91c-1.32,-1.89 -2.57,-3.79 -3.86,-5.62l-7.72 -11.29zm-6.33 -3.32c0.61,1.38 19.13,27.57 19.54,28.66l-12.28 14.24c-0.46,0.56 -0.78,0.9 -1.27,1.45 -0.26,0.28 -0.34,0.46 -0.57,0.73l-5.46 6.37 3.39 0.05c0.81,-0 0.61,0.1 1.03,-0.29l2.92 -3.39c0.26,-0.27 0.35,-0.41 0.59,-0.71 0.23,-0.28 0.4,-0.4 0.61,-0.67l12.93 -15.04c0.44,0.36 3.01,4.22 3.56,5.02l8.66 12.6c0.57,0.8 1.26,1.72 1.66,2.48l14.78 -0.06 -20.36 -29.69 13.95 -16.24c0.4,-0.5 0.78,-0.94 1.18,-1.41 0.44,-0.52 0.73,-0.91 1.12,-1.31l1.8 -2.07c0.31,-0.32 0.31,-0.29 0.52,-0.7 -4.76,0.06 -3.47,-0.93 -6.86,3.12l-4.58 5.33c-1.74,1.88 -3.5,4.15 -5.19,6.02l-3.38 3.95c-0.22,0.28 -0.32,0.3 -0.51,0.52l-9.83 -14.27c-0.54,-0.8 -1.11,-1.55 -1.65,-2.37 -0.37,-0.55 -1.22,-1.89 -1.63,-2.29l-14.68 -0z"/>
 </g>
</svg>
