<?xml version="1.0" encoding="UTF-8"?>
<!DOCTYPE svg PUBLIC "-//W3C//DTD SVG 1.1//EN" "http://www.w3.org/Graphics/SVG/1.1/DTD/svg11.dtd">
<!-- Creator: CorelDRAW 2021 (64 Bit) -->
<svg xmlns="http://www.w3.org/2000/svg" xml:space="preserve" width="42.5984mm" height="42.5984mm" version="1.1" style="shape-rendering:geometricPrecision; text-rendering:geometricPrecision; image-rendering:optimizeQuality; fill-rule:evenodd; clip-rule:evenodd"
viewBox="0 0 382.11 382.11"
 xmlns:xlink="http://www.w3.org/1999/xlink"
 xmlns:xodm="http://www.corel.com/coreldraw/odm/2003">
 <defs>
  <style type="text/css">
   <![CDATA[
    .fil0 {fill:#282829}
    .fil1 {fill:white}
   ]]>
  </style>
 </defs>
 <g id="Camada_x0020_1">
  <metadata id="CorelCorpID_0Corel-Layer"/>
  <circle class="fil0" cx="191.05" cy="191.05" r="191.05"/>
  <path class="fil1" d="M166.31 227.71l-0 -73.28c1.95,0.45 61.54,34.58 63.67,36.56 -5.03,2.55 -10.66,6.23 -15.6,9.07 -6.1,3.5 -45.27,26.84 -48.07,27.66zm147.09 -6.76c2.3,-22.48 2.05,-80.26 -7.21,-96.93 -6.61,-11.9 -18.47,-15.05 -35.62,-17.14 -15.51,-1.89 -33.24,-2.4 -49.27,-2.85 -34.48,-0.95 -68.09,-0.32 -101.82,2.21 -46.2,3.46 -47.2,15.62 -50.71,54.25 -2.14,23.5 -2.52,80.35 7,97.43 6.5,11.66 18.97,14.97 36.02,16.76 16.32,1.71 32.06,2.34 48.7,3.09 32.21,1.47 71.45,0.68 102.68,-2.33 44.51,-4.3 45.96,-12.64 50.24,-54.49z"/>
 </g>
</svg>
